<?xml version="1.0" standalone="yes"?>
<svg xmlns="http://www.w3.org/2000/svg" width="108" height="137">
<path style="fill:#000000; stroke:none;" d="M0 0L0 137L108 137L108 0L0 0z"/>
<path style="fill:#ffffff; stroke:none;" d="M5 5L4 6L4 27L5 28L29 28L30 27L30 6L29 5L5 5z"/>
<path style="fill:#d2732b; stroke:none;" d="M40 5L39 6L39 28L40 29L52 29L54 29L55 29L56 29L58 29.0833L60 29.4722L61 29.8611L63 30.7778L64 31.25L66 32.4722L67.9722 34.0833L68.9167 35.0278L70.5278 37L71.1389 38L71.7222 39L72.1389 40L72.8333 42L73.3611 44L73.6111 45L73.9444 47L74.0556 48L74.2222 49L74.3889 50L74.6111 51L74.9167 53L75 55L75 56L75 57L75 59L75 68L75 78L75 80L75 81L75 82L74.9167 84L74.7778 85L74.6111 86L74.2222 88L74 90L73.7778 92L73.5833 93L73 95L72.6667 96L71.9722 98L71.5833 99L70.5 101L68.9167 102.917L67.9722 103.778L66 105.306L64 106.583L62 107.583L60 108.306L59 108.583L58 108.778L57 108.917L55 109L53 109L51 109L48 109L31 109L31 37L30 36L5 36L4 37L4 131L5 132L49 132L60 132L62 132L63 132L65 131.972L66 131.917L68 131.611L69 131.389L70 131.194L72 130.778L73 130.528L75 129.75L76 129.222L77 128.778L78 128.222L80 127.222L81 126.75L83 125.611L85 124.306L86 123.583L87 122.778L88.9722 120.972L89.9167 120L91.6111 118L92.3611 117L93.8333 115L94.5556 114L95.75 112L96.2222 111L96.75 110L97.1667 109L97.6111 108L98.3056 106L98.6111 105L98.8611 104L99.3611 102L99.6389 101L99.8611 100L100.139 99L100.611 97L100.778 96L100.917 95L101.028 93L101.083 92L101.389 90L101.611 89L101.917 87L101.972 86L102 84L102 82L102 79L102 66L102 57L102 55L101.972 53L101.917 52L101.611 50L101.389 49L101.083 47L100.972 45L100.917 44L100.611 42L100.222 40L100.056 39L99.9444 38L99.5833 36L99 34L98.6667 33L97.9722 31L97.6111 30L96.7222 28L95.6111 26L94.9722 25L93.6667 23L92.3056 21L91.5833 20L89.9167 18L88.9722 17L87 15.0833L86 14.2222L85 13.4167L84 12.6944L82 11.3889L80 10.25L78 9.25L76 8.38889L75 8.02777L74 7.66667L72 7L70 6.33333L69 6L67 5.41667L66 5.22223L65 5.08333L63 5L62 5L60 5L57 5L40 5z"/>
</svg>
