<?xml version="1.0" standalone="yes"?>
<svg xmlns="http://www.w3.org/2000/svg" width="108" height="137">
<path style="fill:#0f0f0f; stroke:none;" d="M0 0L0 137L108 137L108 0L0 0z"/>
<path style="fill:#1b1b1b; stroke:none;" d="M4 5L4 28L4.58488 26.9136L4.64198 26.483L4.83951 25.679C4.98187 24.4567 4.98228 23.2237 4.99691 21.9954L5 16L4.99691 11.0046C4.98228 9.7763 4.98187 8.54332 4.83951 7.32098L4.64198 6.51697L4.58488 6.08643L4 5z"/>
<path style="fill:#9f9f9f; stroke:none;" d="M5 5L6.08642 5.58487L6.51698 5.64197L7.32099 5.83951C8.21623 5.94379 9.11883 5.96388 10.0185 5.98611L15 6L30 6L28.9136 5.41513L28.483 5.35803L27.679 5.16049C26.7838 5.05621 25.8812 5.03612 24.9815 5.01389L20 5L5 5z"/>
<path style="fill:#74421d; stroke:none;" d="M40 5L41.0864 5.58487L41.517 5.64197L42.321 5.83951C43.2172 5.94389 44.1183 5.95753 45.0185 5.98611L49 6L61 6L59.9136 5.41513L59.483 5.35803L58.679 5.16049C57.7828 5.05611 56.8817 5.04247 55.9815 5.01389L52 5L40 5z"/>
<path style="fill:#ffffff; stroke:none;" d="M5 6L5 27L29 27L29 6L5 6z"/>
<path style="fill:#b7b7b7; stroke:none;" d="M29 6L29 27L29.5849 25.9136L29.642 25.483L29.8395 24.679C29.9819 23.4567 29.9823 22.2237 29.9969 20.9954L30 16L29.9861 11.0185C29.9639 10.1188 29.9438 9.21623 29.8395 8.32098L29.642 7.51697L29.5849 7.08643L29 6z"/>
<path style="fill:#683c1c; stroke:none;" d="M39 6L39 28L39.5849 26.9136L39.642 26.483L39.8395 25.679C39.9819 24.4567 39.9823 23.2237 39.9969 21.9954L40 17L39.9969 12.0046C39.9823 10.7763 39.9819 9.54333 39.8395 8.32098L39.642 7.51697L39.5849 7.08643L39 6z"/>
<path style="fill:#d2732b; stroke:none;" d="M40 6L40 27L48 27C50.3349 27.0038 52.6835 26.9588 55 27.3009C56.0149 27.4508 57.0056 27.6789 58 27.9275L60 28.5486L62 29.3526L64 30.3665L65.9961 31.6381L66.9846 32.3904L68.8951 34.1049C70.3497 35.5615 71.5953 37.1928 72.5826 39C73.6088 40.8784 74.2834 42.9415 74.841 45C75.2857 46.6415 75.6445 48.3075 75.8264 50C75.969 51.3276 75.9877 52.6662 75.9961 54L76 59L76 70L76 79C75.9992 81.0006 76.0188 83.0015 75.9105 85C75.8377 86.3439 75.6222 87.6731 75.409 89C75.1397 90.6754 74.8668 92.3648 74.4051 94C74.0179 95.3714 73.501 96.6915 72.9414 98L72.4668 99L71.9252 99.9992L71.3009 100.996L70.5818 101.985L68.892 103.895L66.9846 105.61L65.9961 106.362L64.9992 107.03L63 108.16L61 109.031C60.0202 109.389 59.0243 109.635 58 109.826L55 110.27C53.3356 110.516 51.6804 110.795 50 110.91C48.6694 111.002 47.3329 110.996 46 110.999L40 111L38 110.999L35.0046 110.941L34.0193 110.852L32.1481 110.397L30.6034 109.397L29.6034 107.852L29.3179 106.941L29.1481 105.981L29.0193 103.999L29 101L29 97L29 74L29 38L6 38L6 132L45 132L54 132C56.3305 131.999 58.6776 132.062 61 131.829C62.3425 131.695 63.6793 131.465 65 131.192L67 130.765L70 129.988L72 129.409L73 129.112L75 128.455L77 127.651C79.4702 126.55 81.7947 125.124 83.9961 123.56C85.9803 122.15 87.8898 120.631 89.5324 118.826C90.8835 117.342 92.0476 115.69 93.1235 113.999C94.5347 111.782 95.7663 109.442 96.7431 107C97.2656 105.694 97.7088 104.357 98.0795 103C98.4401 101.68 98.7162 100.339 98.9961 99C99.2728 97.6762 99.5342 96.3413 99.7106 95C99.842 94.0014 99.9112 93.0046 99.9753 92L100.086 90L100.285 88C100.47 86.6668 100.681 85.3397 100.816 84L100.871 82C100.838 80.6529 100.609 79.331 100.424 78C100.286 77.0008 100.158 76.0069 100.09 75C99.9984 73.6694 100.004 72.3329 100.001 71L100 66L100 54L99.9992 49C99.9912 47.3319 99.9958 45.6619 99.8295 44C99.7287 42.9928 99.5658 41.9953 99.3843 41C99.1397 39.6586 98.8539 38.3231 98.5247 37C98.1906 35.657 97.8044 34.3261 97.409 33C97.0062 31.6497 96.6015 30.2972 96.0455 29C95.1294 26.8623 93.8958 24.8984 92.5602 23.0008C91.6099 21.6506 90.5996 20.3522 89.5355 19.0903L88.6998 18.1736L86.9097 16.4645C85.9855 15.647 84.999 14.8782 83.9961 14.1597L82.9992 13.4429L81 12.1181L79 10.9846L78 10.4931C77.0089 10.0417 76.0111 9.6124 75 9.20756C73.6887 8.68251 72.3603 8.15707 71 7.77083C69.6778 7.39539 68.3479 7.07742 67 6.80788C66.0057 6.60904 65.0059 6.42039 64 6.28935C63.0022 6.15936 62.0053 6.07982 61 6.03935L58 6.00076L54 6L40 6z"/>
<path style="fill:#633b1b; stroke:none;" d="M65.6667 6.33333L66 6.66667L66.3333 6.66667L66 6.33333L65.6667 6.33333z"/>
<path style="fill:#6f401d; stroke:none;" d="M73 8L74 9L73 8z"/>
<path style="fill:#884d20; stroke:none;" d="M75 9L76 10L75 9z"/>
<path style="fill:#834b1f; stroke:none;" d="M81 12L82 13L81 12z"/>
<path style="fill:#6f401d; stroke:none;" d="M84 14L85 15L84 14z"/>
<path style="fill:#894d20; stroke:none;" d="M85 15L86 16L85 15z"/>
<path style="fill:#8b4f21; stroke:none;" d="M90 20L91 21L90 20z"/>
<path style="fill:#60391a; stroke:none;" d="M91 21L92 22L91 21z"/>
<path style="fill:#77441e; stroke:none;" d="M93 24L94 25L93 24z"/>
<path style="fill:#939393; stroke:none;" d="M5 27L6.08642 27.5849L6.51698 27.642L7.32099 27.8395C8.21623 27.9438 9.11883 27.9639 10.0185 27.9861L15 28L30 28L28.9136 27.4151L28.483 27.358L27.679 27.1605C26.7838 27.0562 25.8812 27.0361 24.9815 27.0139L20 27L5 27z"/>
<path style="fill:#7f491f; stroke:none;" d="M40 27L41.0864 27.5849L41.517 27.642L42.321 27.8395L44.0586 27.966L47.0008 27.9992L55 28L53.9136 27.4151L53.483 27.358L52.679 27.1605L50.9414 27.034L47.9992 27.0008L40 27z"/>
<path style="fill:#a35b24; stroke:none;" d="M55.6667 27.3333L55.6667 27.6667L56.3333 27.6667L56.3333 27.3333L55.6667 27.3333z"/>
<path style="fill:#5d371a; stroke:none;" d="M58 28L58.909 28.5849L59.3472 28.6528L61 29L60.091 28.4151L59.6528 28.3472L58 28z"/>
<path style="fill:#523118; stroke:none;" d="M62 29L63 30L62 29z"/>
<path style="fill:#7c471e; stroke:none;" d="M66 31L67 32L66 31z"/>
<path style="fill:#945322; stroke:none;" d="M97.3333 32.6667L97.3333 33.3333L97.6667 33.3333L97.6667 32.6667L97.3333 32.6667z"/>
<path style="fill:#80491f; stroke:none;" d="M98.3333 35.6667L98.3333 36.3333L98.6667 36.3333L98.6667 35.6667L98.3333 35.6667z"/>
<path style="fill:#7d481f; stroke:none;" d="M71 36L72 37L71 36z"/>
<path style="fill:#b86527; stroke:none;" d="M5 37L6.08642 37.5849L6.51698 37.642L7.32099 37.8395C8.2172 37.9439 9.11828 37.9575 10.0185 37.9861L14 38L29 38L29 110L29.5849 108.914L29.642 108.483L29.8395 107.679C29.9439 106.783 29.9575 105.882 29.9861 104.981L30 101L30 87L30 37L5 37z"/>
<path style="fill:#1a1411; stroke:none;" d="M4 38L4 132L4.58488 130.914L4.64198 130.483L4.83951 129.679C4.94389 128.783 4.95753 127.882 4.98611 126.981L5 123L5 110L5 62L5 47L4.98611 43.0185C4.95753 42.1183 4.94389 41.2172 4.83951 40.321L4.64198 39.517L4.58488 39.0864L4 38z"/>
<path style="fill:#c66d2a; stroke:none;" d="M5 38L5 132L5.58488 130.914L5.64198 130.483L5.83951 129.679C5.94389 128.783 5.95753 127.882 5.98611 126.981L6 123L6 110L6 62L6 47L5.98611 43.0185C5.95753 42.1183 5.94389 41.2172 5.83951 40.321L5.64198 39.517L5.58488 39.0864L5 38z"/>
<path style="fill:#563319; stroke:none;" d="M72 38L73 39L72 38z"/>
<path style="fill:#5e381a; stroke:none;" d="M99 39L99 42L99.5787 41.125L99.5787 40.1991L99.5787 39.875L99 39z"/>
<path style="fill:#6c3f1c; stroke:none;" d="M73 40L74 41L73 40z"/>
<path style="fill:#4f3018; stroke:none;" d="M74.3333 43.6667L74.3333 44L74.6667 44.3333L74.6667 43.6667L74.3333 43.6667z"/>
<path style="fill:#a25a24; stroke:none;" d="M75 47L75 50L75.5787 49.125L75.5787 48.8009L75.5787 47.875L75 47z"/>
<path style="fill:#402816; stroke:none;" d="M100.333 47.6667L100.333 48.3333L100.667 48.3333L100.667 47.6667L100.333 47.6667z"/>
<path style="fill:#7f491f; stroke:none;" d="M100 49L100 54L100.57 52.9329L100.608 52.5417L100.746 51.8171L100.608 50.4583L100.57 50.0671L100 49z"/>
<path style="fill:#281c13; stroke:none;" d="M75 50L75 87L75.5849 85.9136L75.642 85.483L75.8395 84.679C75.9438 83.7838 75.9639 82.8812 75.9861 81.9815L76 77L76 61L75.9969 56.0046C75.9823 54.7763 75.9819 53.5433 75.8395 52.321L75.642 51.517L75.5849 51.0864L75 50z"/>
<path style="fill:#a05924; stroke:none;" d="M100 54L100 66L100.585 64.9136L100.642 64.483L100.84 63.679C100.981 62.4603 100.994 61.2252 100.994 60C100.994 58.7748 100.981 57.5397 100.84 56.321L100.642 55.517L100.585 55.0864L100 54z"/>
<path style="fill:#bc6828; stroke:none;" d="M100 66L100 79L100.585 77.9136L100.642 77.483L100.84 76.679C100.982 75.4577 100.987 74.2237 100.996 72.9961L100.966 70.0586L100.84 68.321L100.642 67.517L100.585 67.0864L100 66z"/>
<path style="fill:#a05924; stroke:none;" d="M100 86L100 89L100.579 88.125L100.579 87.8009L100.579 86.875L100 86z"/>
<path style="fill:#985523; stroke:none;" d="M75.3333 87.6667L75.3333 88.3333L75.6667 88.3333L75.6667 87.6667L75.3333 87.6667z"/>
<path style="fill:#5c361a; stroke:none;" d="M100.333 89.6667L100.333 90.3333L100.667 90.3333L100.667 90L100.333 89.6667z"/>
<path style="fill:#945422; stroke:none;" d="M74.3333 93.6667L74.3333 94.3333L74.6667 94.3333L74.6667 93.6667L74.3333 93.6667z"/>
<path style="fill:#5f381a; stroke:none;" d="M99 96L99 99L99.5787 98.125L99.5787 97.1991L99.5787 96.875L99 96z"/>
<path style="fill:#62391b; stroke:none;" d="M72 99L73 100L72 99z"/>
<path style="fill:#7d481f; stroke:none;" d="M71 101L72 102L71 101z"/>
<path style="fill:#4b2e18; stroke:none;" d="M98.3333 101.667L98.3333 102.333L98.6667 102.333L98.6667 102L98.3333 101.667z"/>
<path style="fill:#503018; stroke:none;" d="M70 102L71 103L70 102z"/>
<path style="fill:#593519; stroke:none;" d="M67 105L68 106L67 105z"/>
<path style="fill:#874d20; stroke:none;" d="M66 106L67 107L66 106z"/>
<path style="fill:#7e481f; stroke:none;" d="M96 107L97 108L96 107z"/>
<path style="fill:#643b1b; stroke:none;" d="M62 108L63 109L62 108z"/>
<path style="fill:#9d5824; stroke:none;" d="M59.6667 109.333L60 109.667L60.3333 109.667L60 109.333L59.6667 109.333z"/>
<path style="fill:#79451f; stroke:none;" d="M30 110L31.0864 110.585L31.517 110.642L32.321 110.84C33.2172 110.944 34.1183 110.958 35.0185 110.986L39 111L54 111L52.9136 110.415L52.483 110.358L51.679 110.16C50.7828 110.056 49.8817 110.042 48.9815 110.014L45 110L30 110z"/>
<path style="fill:#894e20; stroke:none;" d="M94 111L95 112L94 111z"/>
<path style="fill:#71411d; stroke:none;" d="M93 113L94 114L93 113z"/>
<path style="fill:#563319; stroke:none;" d="M91 116L92 117L91 116z"/>
<path style="fill:#7d471f; stroke:none;" d="M90 117L91 118L90 117z"/>
<path style="fill:#915222; stroke:none;" d="M86 121L87 122L86 121z"/>
<path style="fill:#74431d; stroke:none;" d="M85 122L86 123L85 122z"/>
<path style="fill:#523118; stroke:none;" d="M84 123L85 124L84 123z"/>
<path style="fill:#905122; stroke:none;" d="M82 124L83 125L82 124z"/>
<path style="fill:#503118; stroke:none;" d="M81 125L82 126L81 125z"/>
<path style="fill:#6e401d; stroke:none;" d="M79 126L80 127L79 126z"/>
<path style="fill:#6f401d; stroke:none;" d="M77 127L78 128L77 127z"/>
<path style="fill:#693d1c; stroke:none;" d="M71.6667 129.333L71.6667 129.667L72.3333 129.667L72.3333 129.333L71.6667 129.333z"/>
<path style="fill:#563319; stroke:none;" d="M68.6667 130.333L68.6667 130.667L69.3333 130.667L69.3333 130.333L68.6667 130.333z"/>
<path style="fill:#60381a; stroke:none;" d="M63.6667 131.333L64 131.667L64.3333 131.667L64.3333 131.333L63.6667 131.333z"/>
<path style="fill:#8b4f21; stroke:none;" d="M5 132L6.08642 132.585L6.51698 132.642L7.32099 132.84L9.05864 132.966L13 133L21 133L55 133L53.9136 132.415L53.483 132.358L52.679 132.16L50.9414 132.034L47 132L39 132L5 132z"/>
<path style="fill:#60381a; stroke:none;" d="M55 132L55.909 132.585L56.3472 132.653L58 133L57.091 132.415L56.6528 132.347L55 132z"/>
</svg>
